<svg width="1728" height="2666" viewBox="0 0 1728 2666" fill="none" xmlns="http://www.w3.org/2000/svg">
<g opacity="0.1">
<path d="M1728 1365.17L1491.28 1025.05L991.798 984.281L936.287 1025.05" fill="black"/>
<path d="M-113 2400.81V2045.8L1191.17 0.00012207L1727.15 827.269V1099.86L1234.41 439.103L-113 2400.81Z" fill="black"/>
<path d="M-113 2666V2311.42L1191.17 265.628L1727.15 1092.9L1728 1365.17L1234.41 704.731L-113 2666Z" fill="black"/>
<path d="M-6.18021 1910.22H90.0237V2124.58H-6.18021V1910.22Z" fill="black"/>
<path d="M110.26 1695.64H186.781V1910.22H90.5766V1726.8" fill="black"/>
<path d="M282.874 1695.64H379.078V1910.22H282.874V1695.64Z" fill="black"/>
<path d="M247.046 1481.06H282.874V1695.64H186.781V1575.53" fill="black"/>
<path d="M-6.18021 1910.22H-26.3059L-6.18021 1877.96V1910.22Z" fill="black"/>
</g>
</svg>
