<svg width="1613" height="170" viewBox="0 0 1613 170" fill="none" xmlns="http://www.w3.org/2000/svg">
<rect y="82" width="1593" height="25" rx="12.5" fill="black"/>
<circle cx="97" cy="95" r="54" fill="black"/>
<circle cx="380" cy="95" r="54" fill="black"/>
<circle cx="946" cy="95" r="54" fill="black"/>
<circle cx="665" cy="95" r="54" fill="black"/>
<circle cx="1229" cy="95" r="54" fill="black"/>
<circle cx="1528" cy="85" r="85" fill="black"/>
<circle cx="97" cy="95" r="30" fill="white"/>
<circle cx="665" cy="95" r="30" fill="white"/>
<circle cx="946" cy="95" r="30" fill="white"/>
<circle cx="1229" cy="95" r="30" fill="white"/>
<circle cx="380" cy="95" r="30" fill="white"/>
<rect x="9" y="91" width="1223" height="7" rx="3.5" fill="white"/>
<path d="M1485.64 81.1829L1495.9 96.3231L1518.97 98.2195L1521.53 96.3231" fill="#A5A4D2"/>
<path d="M1570 32.3342V48.8467L1509.76 144L1485 105.522V92.8438L1507.76 123.577L1570 32.3342Z" fill="#A5A4D2"/>
<path d="M1570 20V36.4919L1509.76 131.645L1485 93.1676V80.4891L1507.76 111.222L1570 20Z" fill="#5257A2"/>
<path d="M1565.07 55.1525H1560.62V45.1824H1565.07V55.1525Z" fill="white"/>
<path d="M1559.69 65.133H1556.15V55.1525H1560.6V63.6837" fill="white"/>
<path d="M1551.71 65.133H1547.27V55.1525H1551.71V65.133Z" fill="white"/>
<path d="M1553.37 75.1134H1551.71V65.1329H1556.15V70.7193" fill="white"/>
<path d="M1565.07 55.1525H1566L1565.07 56.6532V55.1525Z" fill="white"/>

<path id="red_charge" d="M1241.65 80.6266C1242.69 79.4447 1242.59 77.6254 1241.28 76.7464C1237.88 74.4595 1233.89 73.1561 1229.76 73.0132C1224.67 72.8371 1219.68 74.4303 1215.64 77.5213C1211.6 80.6122 1208.75 85.0097 1207.58 89.9644C1206.42 94.9191 1207.01 100.124 1209.25 104.694C1211.49 109.263 1215.25 112.913 1219.88 115.022C1224.52 117.131 1229.74 117.569 1234.65 116.261C1239.57 114.953 1243.89 111.98 1246.86 107.848C1249.27 104.491 1250.68 100.539 1250.95 96.4512C1251.06 94.88 1249.68 93.6832 1248.11 93.7832V93.7832C1246.54 93.8833 1245.37 95.2462 1245.2 96.8111C1244.89 99.5764 1243.87 102.233 1242.23 104.518C1240.03 107.579 1236.83 109.781 1233.19 110.75C1229.54 111.719 1225.68 111.395 1222.25 109.833C1218.81 108.27 1216.03 105.566 1214.37 102.181C1212.71 98.7962 1212.27 94.94 1213.13 91.2696C1214 87.5991 1216.11 84.3414 1219.1 82.0516C1222.1 79.7617 1225.8 78.5815 1229.56 78.7119C1232.38 78.8092 1235.1 79.6321 1237.48 81.0791C1238.82 81.8979 1240.61 81.8085 1241.65 80.6266V80.6266Z" fill="#FF6F6F"/>
<path id="orange_charge" d="M1219.55 90.182C1218.77 89.7857 1217.81 90.0925 1217.52 90.9144C1216.76 93.0528 1216.6 95.3723 1217.09 97.6098C1217.7 100.364 1219.24 102.824 1221.45 104.57C1223.67 106.316 1226.42 107.241 1229.24 107.186C1232.06 107.131 1234.77 106.1 1236.91 104.269C1239.06 102.439 1240.5 99.9207 1241 97.1448C1241.49 94.369 1241.01 91.507 1239.64 89.0465C1238.26 86.586 1236.07 84.6791 1233.44 83.6509C1231.31 82.8156 1229 82.6021 1226.77 83.0182C1225.91 83.1782 1225.45 84.0802 1225.72 84.9099V84.9099C1225.99 85.7396 1226.88 86.1789 1227.75 86.058C1229.28 85.8444 1230.84 86.0241 1232.29 86.5926C1234.24 87.3543 1235.86 88.7669 1236.88 90.5896C1237.9 92.4124 1238.26 94.5326 1237.89 96.5889C1237.52 98.6452 1236.45 100.51 1234.86 101.867C1233.27 103.223 1231.26 103.987 1229.18 104.027C1227.09 104.068 1225.05 103.383 1223.41 102.09C1221.77 100.796 1220.63 98.9738 1220.18 96.9333C1219.85 95.4104 1219.91 93.8364 1220.36 92.3621C1220.62 91.5278 1220.33 90.5782 1219.55 90.182V90.182Z" fill="#FCBA3B"/>
</svg>
