<svg xmlns="http://www.w3.org/2000/svg" viewBox="0 0 380 131"><defs><style>.cls-1{fill:#a5a4d2;}.cls-2{fill:#5257a2;}.cls-3{fill:#fff;}</style></defs><g id="Calque_2" data-name="Calque 2"><g id="Calque_1-2" data-name="Calque 1"><polyline class="cls-1" points="0.5 66.37 8.5 50.37 26.5 48.37 28.5 50.37"/><path class="cls-1" d="M66.3,118V100.53L19.31,0,0,40.65v13.4L17.75,21.58Z"/><path class="cls-2" d="M66.3,131V113.58l-47-100.53L0,53.7V67.1L17.75,34.63Z"/><path class="cls-3" d="M62.45,93.86H59v10.55h3.46Z"/><path class="cls-3" d="M58.26,83.32H55.5V93.86H59v-9"/><path class="cls-3" d="M52,83.32H48.57V93.86H52Z"/><path class="cls-3" d="M53.33,72.78H52V83.32H55.5v-5.9"/><path class="cls-3" d="M62.45,93.86h.73l-.73-1.58Z"/><path class="cls-3" d="M53.3,62.49V13.74H95v7H102V41.6H88.05v7h7v7H102v7H81.1v-7H74.15v-7h-7V62.49ZM67.2,41.6H81.1v-7h7V20.7H67.2Z"/><path class="cls-3" d="M157.57,20.7V48.56h-7v7h-7v7h-27.8v-7h-7V20.7h7v-7h34.75v7Zm-13.91,0H122.81V55.52h13.9v-7h-7v-7h13.9Zm7,41.79v-7h7v7Z"/><path class="cls-3" d="M171.47,62.49v-7h-6.95V13.74h13.9V55.52h20.85V13.74h13.9V55.52h-6.95v7Z"/><path class="cls-3" d="M220.12,62.49V13.74h48.66v7H234V34.63h27.8v7H234V55.52h34.75v7Z"/><path class="cls-3" d="M282.68,62.49v-7h-6.95v-7h13.91v7h20.85V41.6H282.68v-7h-6.95V20.7h6.95v-7h34.76v7h6.95v7h-13.9v-7H289.64V34.63h27.8v7h6.95V55.52h-6.95v7Z"/><path class="cls-3" d="M352.2,62.49V20.7H338.29v-7H380v7H366.1V62.49Z"/></g></g></svg>